#!OML:ASF H:\Terrain\Patient Classification 1\Walking\steve\steve.ASF
:FULLY-SPECIFIED
:DEGREES
122
root 6.58167 15.2861 -26.0165 5.12202 -0.876493 6.10049
lowerback 0.387883 -0.33311 -2.75743
upperback -2.18685 -0.484853 0.332591
thorax -2.43709 -0.183278 1.899
lowerneck -9.17376 0.767474 -3.09926
upperneck 16.068 1.35841 1.07994
head 6.36267 0.558178 0.966393
rclavicle 5.8393e-016 -4.77083e-015
rhumerus -65.8625 -24.6319 -54.1083
rradius 21.2329
rwrist 13.7487
rhand -13.4684 -37.8092
rfingers 7.12502
rthumb 12.6417 -67.4066
lclavicle 5.8393e-016 -4.77083e-015
lhumerus -9.30944 0.679998 86.8187
lradius 43.6297
lwrist 24.3312
lhand -24.1847 -14.825
lfingers 7.12502
lthumb 2.29896 15.1424
rfemur -42.9422 5.86664 13.005
rtibia 30.5842
rfoot -9.01876 4.45235
rtoes -9.07208
lfemur 20.6514 -2.52524 -30.4974
ltibia 4.77083e-014
lfoot -9.48089 -1.09073
ltoes -0.187185
123
root 6.57424 15.2956 -25.8371 5.13873 -0.780332 5.85475
lowerback 0.543562 -0.314939 -2.27597
upperback -2.23587 -0.454857 0.415468
thorax -2.57876 -0.174815 1.71475
lowerneck -9.26986 0.775996 -3.02815
upperneck 16.0962 1.37879 0.982683
head 6.38932 0.564341 0.926201
rclavicle 4.02539e-015 -5.56597e-015
rhumerus -65.591 -24.1386 -55.1156
rradius 21.8749
rwrist 12.4108
rhand -14.4995 -38.3386
rfingers 7.12502
rthumb 11.6475 -67.9949
lclavicle 4.02539e-015 -5.56597e-015
lhumerus -9.72371 0.989916 86.9239
lradius 43.9625
lwrist 24.0641
lhand -23.9537 -14.5137
lfingers 7.12502
lthumb 2.52208 15.4511
rfemur -42.7555 5.79528 13.4015
rtibia 31.2439
rfoot -7.25794 4.02322
rtoes -6.57065
lfemur 21.2584 -2.57028 -30.1743
ltibia 2.54444e-014
lfoot -8.70579 -0.896836
ltoes -0.457606
124
root 6.57091 15.3014 -25.6576 5.24752 -0.763418 5.29048
lowerback 0.501246 -0.324934 -1.47757
upperback -2.23854 -0.447248 0.639695
thorax -2.5609 -0.18534 1.49677
lowerneck -9.20071 0.788111 -3.10244
upperneck 15.7778 1.44122 0.755511
head 6.27684 0.575272 0.868352
rclavicle -3.00662e-015 -1.35174e-014
rhumerus -64.9707 -23.8585 -55.8401
rradius 22.0735
rwrist 11.7408
rhand -15.4887 -37.8452
rfingers 7.12502
rthumb 10.6934 -67.5531
lclavicle -3.00662e-015 -1.35174e-014
lhumerus -10.1026 1.42681 87.0729
lradius 44.2405
lwrist 23.8973
lhand -23.8166 -14.2776
lfingers 7.12502
lthumb 2.65446 15.6856
rfemur -42.767 5.91678 14.0659
rtibia 31.9509
rfoot -6.12802 4.10509
rtoes -4.29553
lfemur 21.7772 -2.5311 -29.5088
ltibia -1.27222e-014
lfoot -7.80439 -0.58323
ltoes -1.60356
125
root 6.56637 15.3086 -25.4799 5.25072 -0.889439 4.90046
lowerback 0.518247 -0.334955 -0.868517
upperback -2.14933 -0.445233 0.830244
thorax -2.48115 -0.195864 1.35042
lowerneck -9.33327 0.77708 -3.30182
upperneck 15.5302 1.4999 0.519173
head 6.22165 0.576062 0.829916
rclavicle -1.64494e-014 -1.66979e-014
rhumerus -64.2999 -23.9373 -56.0101
rradius 21.8975
rwrist 11.9078
rhand -15.5125 -37.8417
rfingers 7.12502
rthumb 10.6704 -67.5508
lclavicle -1.64494e-014 -1.66979e-014
lhumerus -10.5006 1.93637 87.1223
lradius 44.4383
lwrist 23.7781
lhand -23.747 -14.4922
lfingers 7.12502
lthumb 2.72173 15.4702
rfemur -42.6802 6.0724 14.573
rtibia 32.6591
rfoot -5.12858 4.23197
rtoes -5.21186
lfemur 22.3211 -2.3357 -29.0927
ltibia -1.49486e-013
lfoot -6.29729 0.037404
ltoes -3.06356
126
root 6.56219 15.3196 -25.3019 5.15272 -1.07998 4.83666
lowerback 0.534212 -0.305416 -0.52274
upperback -1.99554 -0.399492 0.857618
thorax -2.33516 -0.180991 1.18267
lowerneck -9.59584 0.803593 -3.22322
upperneck 15.4896 1.56352 0.334766
head 6.25562 0.596976 0.765002
rclavicle -4.52235e-015 -4.77083e-015
rhumerus -63.5233 -24.37 -55.9427
rradius 21.285
rwrist 12.32
rhand -15.8402 -38.7167
rfingers 7.12502
rthumb 10.3544 -68.4417
lclavicle -4.52235e-015 -4.77083e-015
lhumerus -11.0507 2.04324 87.0135
lradius 44.8093
lwrist 23.9726
lhand -23.9773 -14.9251
lfingers 7.12502
lthumb 2.4993 15.04
rfemur -42.3916 6.04368 14.7995
rtibia 33.4345
rfoot -4.32172 4.4938
rtoes -6.28933
lfemur 21.7554 -2.0908 -29.0146
ltibia 2.30794
lfoot -5.5775 0.148399
ltoes -3.87649
127
root 6.55561 15.3249 -25.1279 5.18794 -1.35598 4.4776
lowerback 0.542505 -0.221542 0.056657
upperback -1.96564 -0.274309 1.01491
thorax -2.31394 -0.127895 1.01594
lowerneck -9.75795 0.899162 -3.08849
upperneck 15.5375 1.71112 0.13897
head 6.29945 0.659749 0.694031
rclavicle -1.78409e-014 0
rhumerus -63.0438 -24.8789 -55.5091
rradius 20.946
rwrist 13.1164
rhand -15.9551 -38.3972
rfingers 7.12502
rthumb 10.2434 -68.1278
lclavicle -1.78409e-014 0
lhumerus -11.8356 2.16342 87.0665
lradius 45.2133
lwrist 24.2375
lhand -24.4078 -15.3349
lfingers 7.12502
lthumb 2.08351 14.6347
rfemur -42.287 6.30121 15.2539
rtibia 34.449
rfoot -4.14083 4.60084
rtoes -5.67934
lfemur 19.6679 -1.7673 -28.5874
ltibia 7.38027
lfoot -6.04942 -0.467024
ltoes -4.06747
128
root 6.54539 15.3235 -24.9555 5.35304 -1.70245 4.14118
lowerback 0.604419 -0.156749 0.502726
upperback -2.04577 -0.174215 1.21185
thorax -2.43381 -0.0841051 0.965999
lowerneck -9.96252 1.04396 -3.08111
upperneck 15.6923 1.94467 -0.0241981
head 6.38252 0.757428 0.662659
rclavicle 1.42628e-014 -3.18055e-015
rhumerus -62.5457 -24.9157 -55.5756
rradius 20.9864
rwrist 13.8514
rhand -15.3698 -37.2591
rfingers 7.12502
rthumb 10.8081 -66.961
lclavicle 1.42628e-014 -3.18055e-015
lhumerus -12.7765 2.59972 87.142
lradius 45.4777
lwrist 24.2429
lhand -24.2817 -15.5366
lfingers 7.12502
lthumb 2.2053 14.4317
rfemur -42.46 6.71102 15.6277
rtibia 35.5862
rfoot -4.19171 4.44434
rtoes -3.49063
lfemur 18.4339 -1.39152 -28.1885
ltibia 10.4734
lfoot -5.43395 -0.583519
ltoes -2.37561
129
root 6.53428 15.3084 -24.7789 5.42869 -2.04603 4.22041
lowerback 0.633687 -0.123955 0.53987
upperback -2.05804 -0.128506 1.24678
thorax -2.46356 -0.0616353 0.979947
lowerneck -10.0789 1.14992 -2.97311
upperneck 15.6311 2.1184 -0.285255
head 6.38518 0.827055 0.576732
rclavicle -4.52235e-015 2.62396e-014
rhumerus -61.4423 -24.26 -56.9411
rradius 20.9667
rwrist 13.5933
rhand -15.7305 -37.5085
rfingers 7.12502
rthumb 10.4601 -67.2283
lclavicle -4.52235e-015 2.62396e-014
lhumerus -13.8046 2.84085 87.0555
lradius 45.7581
lwrist 24.327
lhand -24.239 -15.4944
lfingers 7.12502
lthumb 2.24657 14.4735
rfemur -42.5352 6.83507 15.6624
rtibia 36.5893
rfoot -4.20198 4.47247
rtoes -0.0683208
lfemur 16.9295 -1.38208 -28.4041
ltibia 14.0681
lfoot -4.89858 -0.319808
ltoes 2.43743
130
root 6.52272 15.301 -24.6012 5.43618 -2.26822 4.25793
lowerback 0.632016 -0.122116 0.624969
upperback -2.03994 -0.123809 1.29059
thorax -2.4442 -0.0605352 0.977014
lowerneck -10.0653 1.19389 -2.87798
upperneck 15.4614 2.20171 -0.542137
head 6.33227 0.854645 0.485067
rclavicle -1.95554e-014 7.95139e-016
rhumerus -60.5425 -24.217 -57.4907
rradius 20.7467
rwrist 13.9801
rhand -16.0599 -38.8354
rfingers 7.12502
rthumb 10.1424 -68.5709
lclavicle -1.95554e-014 7.95139e-016
lhumerus -14.7601 3.14438 87.0199
lradius 45.8575
lwrist 24.3756
lhand -24.8324 -15.3571
lfingers 7.12502
lthumb 1.67344 14.6161
rfemur -42.3806 6.65196 15.8683
rtibia 37.3854
rfoot -4.35935 5.03374
rtoes 2.21363
lfemur 15.3531 -1.1385 -28.5336
ltibia 17.7773
lfoot -3.73678 0.415817
ltoes 0.122289
131
root 6.5107 15.3215 -24.4248 5.44473 -2.32698 4.15336
lowerback 0.660879 -0.130744 0.809707
upperback -2.05324 -0.129196 1.38025
thorax -2.47442 -0.0659148 0.965832
lowerneck -9.9576 1.26078 -2.78197
upperneck 15.3682 2.29561 -0.689911
head 6.28593 0.89568 0.428597
rclavicle -1.10822e-014 -1.59028e-015
rhumerus -60.031 -25.2277 -56.58
rradius 20.0011
rwrist 15.6802
rhand -16.115 -38.7741
rfingers 7.12502
rthumb 10.0892 -68.5123
lclavicle -1.10822e-014 -1.59028e-015
lhumerus -15.5143 3.59392 87.0548
lradius 45.5698
lwrist 24.3054
lhand -25.2556 -15.2433
lfingers 7.12502
lthumb 1.26474 14.7327
rfemur -42.0483 6.37734 16.2374
rtibia 38.0067
rfoot -4.41526 5.88718
rtoes 4.58448
lfemur 13.8585 -0.831496 -28.3287
ltibia 21.3331
lfoot -1.69156 1.33421
ltoes -7.84397
132
root 6.4986 15.3495 -24.2506 5.40675 -2.42262 3.99893
lowerback 0.735365 -0.073925 1.04096
upperback -2.03853 -0.0452017 1.49212
thorax -2.50246 -0.027392 0.948877
lowerneck -9.82292 1.31652 -2.76725
upperneck 15.2613 2.3914 -0.86701
head 6.23055 0.931238 0.37598
rclavicle -1.08338e-014 2.70347e-014
rhumerus -59.0149 -25.1658 -57.1593
rradius 19.7246
rwrist 15.491
rhand -16.4678 -38.857
rfingers 7.12502
rthumb 9.74884 -68.6113
lclavicle -1.08338e-014 2.70347e-014
lhumerus -16.3225 3.81367 87.1665
lradius 45.2625
lwrist 24.4064
lhand -25.4539 -15.7003
lfingers 7.12502
lthumb 1.07319 14.2768
rfemur -41.5451 6.2727 16.624
rtibia 38.4326
rfoot -4.25234 6.59295
rtoes 7.42186
lfemur 12.3799 -0.730964 -28.0294
ltibia 24.9613
lfoot 0.0648003 2.0169
ltoes -7.26668
133
root 6.4818 15.3705 -24.0805 5.38407 -2.6025 3.83027
lowerback 0.79735 -0.0374723 1.19088
upperback -1.9752 0.00923676 1.6146
thorax -2.4729 -0.00179754 0.988981
lowerneck -9.76234 1.36621 -2.84033
upperneck 15.0836 2.47604 -0.936093
head 6.16333 0.965937 0.371249
rclavicle 1.03368e-014 3.18055e-015
rhumerus -57.6737 -24.5466 -58.558
rradius 19.7924
rwrist 14.6645
rhand -16.4002 -39.6778
rfingers 7.12502
rthumb 9.81408 -69.4291
lclavicle 1.03368e-014 3.18055e-015
lhumerus -17.0769 4.22576 87.1942
lradius 44.8926
lwrist 24.4179
lhand -25.4434 -15.9168
lfingers 7.12502
lthumb 1.08334 14.0602
rfemur -41.0626 6.34928 17.0001
rtibia 38.7999
rfoot -4.26944 7.08674
rtoes 8.37346
lfemur 10.8793 -0.517744 -27.7328
ltibia 28.4348
lfoot 1.43878 2.37784
ltoes -7.93061
